<svg width="20" height="20" viewBox="0 0 20 20" xmlns="http://www.w3.org/2000/svg">
  <g fill="#000" fill-opacity="0.5">
    <circle cx="1" cy="1" r="1" />
    <circle cx="5" cy="1" r="1" />
    <circle cx="9" cy="1" r="1" />
    <circle cx="13" cy="1" r="1" />
    <circle cx="17" cy="1" r="1" />
    <circle cx="1" cy="5" r="1" />
    <circle cx="5" cy="5" r="1" />
    <circle cx="9" cy="5" r="1" />
    <circle cx="13" cy="5" r="1" />
    <circle cx="17" cy="5" r="1" />
    <circle cx="1" cy="9" r="1" />
    <circle cx="5" cy="9" r="1" />
    <circle cx="9" cy="9" r="1" />
    <circle cx="13" cy="9" r="1" />
    <circle cx="17" cy="9" r="1" />
    <circle cx="1" cy="13" r="1" />
    <circle cx="5" cy="13" r="1" />
    <circle cx="9" cy="13" r="1" />
    <circle cx="13" cy="13" r="1" />
    <circle cx="17" cy="13" r="1" />
    <circle cx="1" cy="17" r="1" />
    <circle cx="5" cy="17" r="1" />
    <circle cx="9" cy="17" r="1" />
    <circle cx="13" cy="17" r="1" />
    <circle cx="17" cy="17" r="1" />
  </g>
</svg>
